<mxfile host="app.diagrams.net" modified="2021-08-10T05:16:56.334Z" agent="5.0 (Windows NT 10.0; Win64; x64) AppleWebKit/537.36 (KHTML, like Gecko) Chrome/92.0.4515.131 Safari/537.36" etag="9DvfsguE-CyJpJlrvgBf" version="14.9.5" type="github">
  <diagram id="C5RBs43oDa-KdzZeNtuy" name="Page-1">
    <mxGraphModel dx="1038" dy="435" grid="1" gridSize="10" guides="1" tooltips="1" connect="1" arrows="1" fold="1" page="1" pageScale="1" pageWidth="827" pageHeight="1169" math="0" shadow="0">
      <root>
        <mxCell id="WIyWlLk6GJQsqaUBKTNV-0" />
        <mxCell id="WIyWlLk6GJQsqaUBKTNV-1" parent="WIyWlLk6GJQsqaUBKTNV-0" />
        <mxCell id="zkfFHV4jXpPFQw0GAbJ--17" value="Country" style="swimlane;fontStyle=0;align=center;verticalAlign=top;childLayout=stackLayout;horizontal=1;startSize=26;horizontalStack=0;resizeParent=1;resizeLast=0;collapsible=1;marginBottom=0;rounded=0;shadow=0;strokeWidth=1;" parent="WIyWlLk6GJQsqaUBKTNV-1" vertex="1">
          <mxGeometry x="508" y="120" width="160" height="170" as="geometry">
            <mxRectangle x="550" y="140" width="160" height="26" as="alternateBounds" />
          </mxGeometry>
        </mxCell>
        <mxCell id="P7hDJC9m4RmRmQAJ9QNI-7" value="&lt;div style=&quot;text-align: justify&quot;&gt;&lt;span&gt;-Address line 1 : String&lt;/span&gt;&lt;/div&gt;&lt;span&gt;&lt;div style=&quot;text-align: justify&quot;&gt;&lt;span&gt;-Address line 2 : String&lt;/span&gt;&lt;/div&gt;&lt;/span&gt;&lt;span&gt;&lt;div style=&quot;text-align: justify&quot;&gt;&lt;span&gt;-City : String&lt;/span&gt;&lt;/div&gt;&lt;/span&gt;&lt;span&gt;&lt;div style=&quot;text-align: justify&quot;&gt;&lt;span&gt;-State : String&lt;/span&gt;&lt;/div&gt;&lt;/span&gt;" style="whiteSpace=wrap;html=1;" vertex="1" parent="zkfFHV4jXpPFQw0GAbJ--17">
          <mxGeometry y="26" width="160" height="144" as="geometry" />
        </mxCell>
        <mxCell id="zkfFHV4jXpPFQw0GAbJ--26" value="" style="endArrow=open;shadow=0;strokeWidth=1;rounded=0;endFill=1;edgeStyle=elbowEdgeStyle;elbow=vertical;" parent="WIyWlLk6GJQsqaUBKTNV-1" target="zkfFHV4jXpPFQw0GAbJ--17" edge="1">
          <mxGeometry x="0.5" y="41" relative="1" as="geometry">
            <mxPoint x="380" y="190" as="sourcePoint" />
            <mxPoint x="540" y="192" as="targetPoint" />
            <mxPoint x="-40" y="32" as="offset" />
          </mxGeometry>
        </mxCell>
        <mxCell id="zkfFHV4jXpPFQw0GAbJ--27" value="0..1" style="resizable=0;align=left;verticalAlign=bottom;labelBackgroundColor=none;fontSize=12;" parent="zkfFHV4jXpPFQw0GAbJ--26" connectable="0" vertex="1">
          <mxGeometry x="-1" relative="1" as="geometry">
            <mxPoint y="4" as="offset" />
          </mxGeometry>
        </mxCell>
        <mxCell id="zkfFHV4jXpPFQw0GAbJ--28" value="1" style="resizable=0;align=right;verticalAlign=bottom;labelBackgroundColor=none;fontSize=12;" parent="zkfFHV4jXpPFQw0GAbJ--26" connectable="0" vertex="1">
          <mxGeometry x="1" relative="1" as="geometry">
            <mxPoint x="-7" y="4" as="offset" />
          </mxGeometry>
        </mxCell>
        <mxCell id="zkfFHV4jXpPFQw0GAbJ--29" value="lives in" style="text;html=1;resizable=0;points=[];;align=center;verticalAlign=middle;labelBackgroundColor=none;rounded=0;shadow=0;strokeWidth=1;fontSize=12;" parent="zkfFHV4jXpPFQw0GAbJ--26" vertex="1" connectable="0">
          <mxGeometry x="0.5" y="49" relative="1" as="geometry">
            <mxPoint x="-38" y="40" as="offset" />
          </mxGeometry>
        </mxCell>
        <mxCell id="P7hDJC9m4RmRmQAJ9QNI-5" value="User" style="swimlane;" vertex="1" parent="WIyWlLk6GJQsqaUBKTNV-1">
          <mxGeometry x="180" y="70" width="200" height="205" as="geometry" />
        </mxCell>
        <mxCell id="P7hDJC9m4RmRmQAJ9QNI-6" value="&lt;div style=&quot;text-align: justify&quot;&gt;&lt;span&gt;-Name : String&lt;/span&gt;&lt;/div&gt;&lt;div style=&quot;text-align: justify&quot;&gt;&lt;span&gt;-Mobile Number : long&lt;/span&gt;&lt;/div&gt;&lt;div style=&quot;text-align: justify&quot;&gt;&lt;span&gt;-Email Address : String&lt;/span&gt;&lt;/div&gt;&lt;div style=&quot;text-align: justify&quot;&gt;&lt;span&gt;-Age : Byte&lt;/span&gt;&lt;/div&gt;" style="whiteSpace=wrap;html=1;" vertex="1" parent="P7hDJC9m4RmRmQAJ9QNI-5">
          <mxGeometry y="20" width="200" height="115" as="geometry" />
        </mxCell>
        <mxCell id="P7hDJC9m4RmRmQAJ9QNI-16" value="&lt;div style=&quot;text-align: justify&quot;&gt;&lt;span&gt;+bookAppointment&lt;/span&gt;&lt;/div&gt;&lt;div style=&quot;text-align: justify&quot;&gt;&lt;span&gt;+cancelAppointment&lt;/span&gt;&lt;/div&gt;" style="rounded=0;whiteSpace=wrap;html=1;" vertex="1" parent="P7hDJC9m4RmRmQAJ9QNI-5">
          <mxGeometry y="130" width="200" height="75" as="geometry" />
        </mxCell>
        <mxCell id="P7hDJC9m4RmRmQAJ9QNI-9" value="Appointments" style="swimlane;" vertex="1" parent="WIyWlLk6GJQsqaUBKTNV-1">
          <mxGeometry x="190" y="370" width="200" height="205" as="geometry" />
        </mxCell>
        <mxCell id="P7hDJC9m4RmRmQAJ9QNI-10" value="&lt;div style=&quot;text-align: justify&quot;&gt;&lt;span&gt;-Trainee preference : String&lt;/span&gt;&lt;/div&gt;&lt;div style=&quot;text-align: justify&quot;&gt;&lt;span&gt;-Physio required : String&lt;/span&gt;&lt;/div&gt;&lt;div style=&quot;text-align: justify&quot;&gt;&lt;span&gt;-Date of appointment : String&lt;/span&gt;&lt;/div&gt;" style="whiteSpace=wrap;html=1;" vertex="1" parent="P7hDJC9m4RmRmQAJ9QNI-9">
          <mxGeometry y="25" width="200" height="180" as="geometry" />
        </mxCell>
        <mxCell id="P7hDJC9m4RmRmQAJ9QNI-13" value="" style="endArrow=classic;html=1;entryX=0.46;entryY=0.01;entryDx=0;entryDy=0;entryPerimeter=0;exitX=0.025;exitY=-0.25;exitDx=0;exitDy=0;exitPerimeter=0;" edge="1" parent="WIyWlLk6GJQsqaUBKTNV-1" source="P7hDJC9m4RmRmQAJ9QNI-14" target="P7hDJC9m4RmRmQAJ9QNI-9">
          <mxGeometry width="50" height="50" relative="1" as="geometry">
            <mxPoint x="282" y="270" as="sourcePoint" />
            <mxPoint x="310" y="280" as="targetPoint" />
          </mxGeometry>
        </mxCell>
        <mxCell id="P7hDJC9m4RmRmQAJ9QNI-14" value="0..1&lt;br&gt;" style="text;html=1;align=center;verticalAlign=middle;resizable=0;points=[];autosize=1;strokeColor=none;" vertex="1" parent="WIyWlLk6GJQsqaUBKTNV-1">
          <mxGeometry x="280" y="280" width="40" height="20" as="geometry" />
        </mxCell>
        <mxCell id="P7hDJC9m4RmRmQAJ9QNI-15" value="1..*" style="text;html=1;align=center;verticalAlign=middle;resizable=0;points=[];autosize=1;strokeColor=none;" vertex="1" parent="WIyWlLk6GJQsqaUBKTNV-1">
          <mxGeometry x="285" y="340" width="30" height="20" as="geometry" />
        </mxCell>
        <mxCell id="P7hDJC9m4RmRmQAJ9QNI-17" value="Cost" style="swimlane;" vertex="1" parent="WIyWlLk6GJQsqaUBKTNV-1">
          <mxGeometry x="520" y="450" width="200" height="205" as="geometry" />
        </mxCell>
        <mxCell id="P7hDJC9m4RmRmQAJ9QNI-18" value="&lt;div style=&quot;text-align: justify&quot;&gt;-Trainee name : String&lt;/div&gt;&lt;div style=&quot;text-align: justify&quot;&gt;-Physio required : String&lt;/div&gt;" style="whiteSpace=wrap;html=1;" vertex="1" parent="P7hDJC9m4RmRmQAJ9QNI-17">
          <mxGeometry y="20" width="200" height="125" as="geometry" />
        </mxCell>
        <mxCell id="P7hDJC9m4RmRmQAJ9QNI-21" value="+calculateTotalAmount" style="whiteSpace=wrap;html=1;" vertex="1" parent="WIyWlLk6GJQsqaUBKTNV-1">
          <mxGeometry x="520" y="590" width="200" height="70" as="geometry" />
        </mxCell>
      </root>
    </mxGraphModel>
  </diagram>
</mxfile>
